<?xml version="1.0" encoding="UTF-8" standalone="no"?>
<svg
   version="1.1"
   width="458"
   height="505"
   id="svg48"
   sodipodi:docname="icon.svg"
   inkscape:version="1.4.4 (dcaf3e7d9e, 2026-05-05)"
   inkscape:export-filename="icon.png"
   inkscape:export-xdpi="96.400002"
   inkscape:export-ydpi="96.400002"
   xmlns:inkscape="http://www.inkscape.org/namespaces/inkscape"
   xmlns:sodipodi="http://sodipodi.sourceforge.net/DTD/sodipodi-0.dtd"
   xmlns="http://www.w3.org/2000/svg"
   xmlns:svg="http://www.w3.org/2000/svg">
  <defs
     id="defs48" />
  <sodipodi:namedview
     id="namedview48"
     pagecolor="#505050"
     bordercolor="#eeeeee"
     borderopacity="1"
     inkscape:showpageshadow="0"
     inkscape:pageopacity="0"
     inkscape:pagecheckerboard="false"
     inkscape:deskcolor="#505050"
     inkscape:zoom="0.92622801"
     inkscape:cx="148.45157"
     inkscape:cy="308.23944"
     inkscape:window-width="1908"
     inkscape:window-height="1035"
     inkscape:window-x="0"
     inkscape:window-y="0"
     inkscape:window-maximized="0"
     inkscape:current-layer="svg48"
     showguides="true" />
  <path
     d="m 118.63599,14.439875 c 15.83953,8.913546 31.28747,18.403711 46.71326,27.963889 13.79589,8.472585 27.78989,16.613249 41.78797,24.770478 45.91308,26.790877 91.33277,54.332868 136.58988,82.138438 11.67511,7.13074 23.40742,14.16701 35.1506,21.19298 7.49455,4.53976 14.98803,9.08111 22.4804,13.62418 3.45925,2.04283 6.9185,4.08564 10.48257,6.19036 25.13199,16.91769 36.0073,29.96114 44.76046,59.05954 1.81814,20.71998 -2.57173,34.1148 -13.96255,52.0829 -0.47507,1.00402 -312.52524,189.65997 -312.52524,189.65997 -24.65526,13.35592 -53.062005,15.05112 -80.853652,11.64915 C 27.371839,492.22204 15.872267,481.86123 5.5509217,460.6373 2.9567107,446.04743 2.5917967,431.52725 2.2120737,416.74722 2.0531857,412.1811 1.8944587,407.61496 1.7307717,402.91045 -0.46038733,328.9367 -0.06172133,254.89434 0.6150907,180.90211 c 0.07439,-9.83596 0.101485,-19.67071 0.107915,-29.5069 0.04362,-16.11112 0.273415,-32.20751 0.578608,-48.3157 -0.01378,-4.522375 -0.02433,-9.044781 -0.0388,-13.704192 C 2.2059937,57.903405 11.374255,33.941048 34.691749,11.202963 64.824975,-3.3814609 89.417175,-0.06276218 118.6376,14.439875 Z"
     fill="#092062"
     id="path1"
     style="display:inline;opacity:1;stroke-width:4.76826"
     inkscape:label="bg-blue"
     sodipodi:nodetypes="ccccccccccccccccccccc" />
  <path
     d="M 118.63599,14.439875 411.84067,190.3202 c 25.68843,17.58543 37.78793,29.29341 44.76046,59.05954 1.81814,20.71998 0.25887,38.38965 -13.96255,52.0829 L 130.11334,491.12261 C 105.45808,504.47853 77.051335,506.17373 49.259688,502.77176 27.371839,492.22204 15.872267,481.86123 5.5509217,460.6373 2.9567107,446.04743 1.4228987,429.76195 1.0431757,414.98192 L 1.2628087,89.375318 C 2.2059887,57.903405 4.9453147,33.352613 34.691744,11.202963 64.824965,-3.3814609 89.417165,-0.06276218 118.6376,14.439875 Z M 34.690114,53.337429 c -7.461389,14.385313 -5.65753,29.50432 -5.716148,45.294796 l -2.19583,320.201125 c 0.237482,22.86179 5.56278,35.14637 22.481505,51.16716 13.798715,6.65087 23.501044,5.8882 38.852244,4.6816 20.186495,-8.08142 15.897715,-6.4713 30.182385,-14.70291 0.39081,-0.48101 306.2986,-185.91622 306.2986,-185.91622 7.05413,-9.66741 8.17837,-21.43213 -1.60155,-33.37302 -34.45987,-28.3566 -56.098,-40.46243 -56.098,-40.46243 C 250.34188,131.55667 246.99897,126.23862 115.42986,50.484362 100.5712,40.826854 90.480365,35.013701 72.631685,31.977364 53.122495,31.696851 42.971157,35.121969 34.690064,53.337189 Z"
     fill="#e4e8e6"
     id="path2"
     style="display:inline;stroke-width:4.76826"
     inkscape:label="border-white"
     sodipodi:nodetypes="ccccccccccccccccccccccccc" />
  <g
     id="g48"
     inkscape:label="code icon"
     style="display:inline"
     transform="matrix(0.9932258,0,0,1,-36.127803,-2.0785574)">
    <path
       d="m 148.06756,158.08873 78.46356,65.88544 -58.67585,74.90572 -18.07472,-16.52756 44.78048,-56.08071 -59.62885,-51.69754 z"
       fill="#eaf0f8"
       id="path10"
       style="stroke-width:4.78449"
       inkscape:label="&gt;"
       sodipodi:nodetypes="ccccccc" />
    <path
       d="m 218.45754,292.67499 c 33.8853,0 67.7706,0 102.68272,0 0,6.17971 0,12.35944 0,18.72643 -33.8853,0 -67.77058,0 -102.68272,0 0,-6.17973 0,-12.35945 0,-18.72643 z"
       fill="#dbe5f4"
       id="path13"
       style="stroke-width:4.78449"
       inkscape:label="_" />
  </g>
</svg>
